<?xml version="1.0" standalone="no"?>
<!DOCTYPE svg PUBLIC "-//W3C//DTD SVG 20010904//EN"
 "http://www.w3.org/TR/2001/REC-SVG-20010904/DTD/svg10.dtd">
<svg version="1.0" xmlns="http://www.w3.org/2000/svg"
 width="450.000000pt" height="422.000000pt" viewBox="0 0 450.000000 422.000000"
 preserveAspectRatio="xMidYMid meet">
<metadata>
Created by potrace 1.10, written by Peter Selinger 2001-2011
</metadata>
<g transform="translate(0.000000,422.000000) scale(0.100000,-0.100000)"
fill="#000000" stroke="none">
<path d="M1542 4214 c-7 -3 -17 -14 -22 -24 -8 -15 0 -39 39 -112 74 -140 95
-238 88 -408 -4 -102 -12 -158 -32 -230 -64 -234 -218 -450 -442 -623 -34 -26
-65 -47 -70 -47 -4 0 -28 33 -52 74 -123 209 -264 294 -474 284 -84 -3 -103
-8 -168 -40 -151 -75 -249 -214 -271 -384 -10 -79 -15 -93 -46 -128 -83 -94
-113 -239 -67 -331 28 -57 51 -56 111 4 84 83 177 93 240 26 60 -65 67 -165
33 -514 -33 -333 -17 -538 57 -761 113 -338 358 -636 669 -812 350 -199 804
-242 1192 -113 166 55 312 135 445 242 l68 55 35 -26 c85 -65 246 -116 366
-116 190 0 397 104 507 255 43 60 48 64 96 71 280 37 511 234 608 514 39 115
62 345 38 391 -18 33 -56 22 -133 -36 -195 -146 -471 -229 -702 -210 -143 11
-396 83 -395 112 0 4 19 19 42 33 61 36 174 145 223 215 47 66 105 178 125
240 8 23 38 67 73 104 109 117 188 259 227 407 26 102 27 269 1 369 -17 64
-18 76 -4 140 21 102 13 307 -16 400 -31 96 -88 190 -158 258 -54 53 -59 61
-71 124 -7 38 -31 106 -54 153 -77 159 -227 277 -396 311 -56 12 -64 11 -79
-4 -16 -16 -16 -21 1 -84 41 -147 48 -204 42 -338 -7 -188 -49 -337 -148 -524
-134 -254 -353 -464 -642 -616 -63 -33 -117 -57 -120 -54 -15 15 19 156 52
214 59 104 85 197 90 316 5 126 -6 187 -52 284 -24 51 -36 95 -44 161 -13 109
-54 222 -107 294 -42 57 -115 119 -163 139 -21 9 -36 26 -50 59 -51 122 -171
233 -289 267 -59 17 -179 29 -201 19z m224 -130 c68 -32 137 -107 179 -196 31
-63 40 -75 87 -100 137 -75 228 -234 228 -399 0 -47 7 -71 39 -134 45 -87 61
-149 61 -234 0 -103 -50 -255 -111 -343 -12 -16 -23 -58 -29 -103 -10 -80 -24
-141 -38 -162 -8 -13 -39 -26 -318 -128 -115 -43 -250 -95 -301 -117 -55 -23
-100 -37 -111 -34 -34 11 -113 98 -158 175 -24 41 -70 140 -101 219 -50 125
-55 145 -41 153 36 20 178 142 246 211 158 161 260 338 314 545 27 105 31 135
31 263 1 155 -17 247 -69 368 l-24 53 33 -6 c17 -4 55 -18 83 -31z m1613 -152
c105 -61 190 -179 226 -312 22 -82 29 -223 16 -325 -56 -435 -361 -863 -756
-1062 -98 -50 -227 -97 -296 -108 -80 -13 -111 -51 -72 -90 21 -21 72 -15 203
27 378 120 695 402 881 783 80 166 139 379 139 508 0 26 4 47 9 47 12 0 56
-67 86 -132 57 -125 68 -265 35 -430 -81 -396 -384 -745 -772 -892 -53 -20
-111 -34 -255 -62 -34 -7 -48 -40 -28 -70 19 -29 30 -30 151 -3 239 51 455
170 635 349 93 93 198 236 250 343 18 37 37 67 41 67 15 0 8 -126 -12 -210
-71 -294 -328 -554 -623 -629 -43 -11 -82 -23 -87 -26 -19 -12 -11 -64 10 -75
29 -16 162 19 268 70 45 21 82 35 82 31 0 -21 -89 -143 -145 -197 -224 -220
-596 -303 -953 -214 -42 11 -118 40 -169 66 -93 46 -125 50 -137 17 -11 -28 4
-51 52 -82 218 -139 615 -171 906 -73 l81 27 70 -37 c331 -174 786 -152 1112
52 35 22 67 40 70 40 3 0 3 -28 -1 -63 -30 -298 -222 -531 -496 -604 -95 -26
-281 -23 -380 6 -109 32 -128 35 -145 21 -22 -19 -18 -57 8 -74 30 -20 155
-54 228 -62 32 -4 59 -10 59 -14 0 -4 -29 -35 -64 -68 -105 -98 -221 -142
-374 -142 -118 0 -257 44 -304 96 -16 18 -14 22 29 74 25 30 62 79 81 108 31
46 34 55 24 77 -8 18 -19 25 -40 25 -23 0 -36 -12 -80 -74 -29 -40 -92 -113
-139 -160 -244 -246 -576 -379 -943 -379 -387 1 -726 144 -990 419 -193 201
-326 464 -365 721 -19 128 -19 339 1 533 23 218 23 390 1 463 -47 154 -206
222 -351 149 l-56 -29 0 26 c1 42 34 103 82 150 l46 43 4 92 c4 78 9 100 37
154 44 86 101 146 175 182 116 57 243 50 357 -19 110 -66 174 -166 279 -430
95 -239 148 -337 237 -432 l44 -47 -83 -48 c-185 -108 -438 -325 -438 -375 0
-14 5 -30 12 -37 24 -24 54 -12 108 44 213 217 464 364 895 524 381 141 407
151 550 220 338 163 597 399 744 680 67 128 114 253 141 375 35 152 31 374 -6
499 -5 16 -2 18 22 12 15 -4 48 -19 73 -34z"/>
</g>
</svg>
